<svg xmlns="http://www.w3.org/2000/svg" width="512" height="512" xml:space="preserve"><path fill-rule="evenodd" clip-rule="evenodd" fill="#E62D27" d="M506.89 360.392S495.388 400.125 480.027 416c-19.464 20.844-42.788 25.266-52.805 26.484-3.282.25-6.673.461-10.064.672l-.016-.141c-4.47.359-9.063-.984-12.471-4.406-6.212-6.188-6.212-16.258 0-22.445 2.813-2.82 6.462-4.164 10.135-4.43l-.016-.18c.539-.039 1.109-.07 1.633-.109 8.29-1.008 26.355-1.094 42.491-18.319 12.721-13.109 16.846-42.891 16.846-42.891s4.235-34.961 4.235-69.921v-48.801c0-34.96-4.235-69.944-4.235-69.944s-4.125-29.777-16.846-42.89c-16.136-17.207-34.201-17.297-42.491-18.301-59.337-4.375-160.438-4.359-160.438-4.359s-101.086-.016-160.423 4.359c-8.291 1.004-26.355 1.094-42.483 18.301-12.705 13.113-16.847 42.89-16.847 42.89-.008 0-4.235 34.984-4.235 69.944v48.801c0 34.96 4.235 69.921 4.235 69.921-.008 0 4.142 29.781 16.847 42.891 16.127 17.226 37.318 16.687 46.757 18.483C133.763 414.922 255.984 416 255.984 416c8.845 0 16.002 7.172 16.002 16 0 8.844-7.157 16-16.002 16-.266 0-.523-.047-.789-.062-10.103-.109-126.113-1.406-165.283-5.258-11.392-2.195-38.467-5.836-57.954-26.68-15.362-15.875-26.84-55.608-26.84-55.608S0 326.071 0 283.736v-55.683c0-42.336 5.118-76.671 5.118-76.671s11.478-39.503 26.84-55.363c19.487-20.843 42.795-25.507 52.805-26.726C156.422 64 255.891 64 255.891 64h.219s99.469 0 171.112 5.293c10.017 1.219 33.341 5.883 52.805 26.726 15.361 15.859 26.863 55.363 26.863 55.363s5.11 34.335 5.11 76.671v55.683c0 42.335-5.11 76.656-5.11 76.656zM320.002 416c8.845 0 16.002 7.172 16.002 16 0 8.844-7.157 16-16.002 16S304 440.844 304 432c0-8.828 7.157-16 16.002-16zm-71.534-81.858-.148.078c-2.368 1.438-5.11 2.297-8.072 2.297-8.697 0-15.752-7.055-15.752-15.75 0-6.062 3.461-11.266 8.486-13.905l-.016-.016 81.614-43.523c-.047-.039-.18-.07-.102-.109a7.998 7.998 0 0 0 4.517-7.211c0-2.906-1.609-5.453-3.931-6.836l-95.538-51.054a7.714 7.714 0 0 0-3.532-.844c-4.274 0-7.681 3.355-7.916 7.535l.016 99.042h-.125c0 .055.023.109.023.164 0 8.843-7.181 15.999-16.01 15.999-8.845 0-16.002-7.156-16.002-15.999V192.569c0-17.976 14.588-32.558 32.567-32.558a32.35 32.35 0 0 1 16.792 4.664c.195.105.266.07.43.141l110.376 63.597c2.336 1.363 4.492 2.976 6.485 4.968 12.502 12.504 12.502 32.762 0 45.262-1.837 1.828-3.86 3.359-5.978 4.664l-87.537 50.444c-.218.141-.436.25-.647.391z"/></svg>